<svg width="82" height="96" viewBox="0 0 82 96" fill="none" xmlns="http://www.w3.org/2000/svg">
<g clip-path="url(#clip0_202_279)">
<path d="M82.25 -0.0200043V58.2C82.25 62.18 81.22 66.12 79.27 69.59C77.32 73.06 74.5 75.99 71.1 78.06L41.3 96.25L11.21 78.06C7.78999 75.99 4.93998 73.06 2.97998 69.58C1.01998 66.1 -0.0200195 62.15 -0.0200195 58.15V-0.0200043H82.25V-0.0200043Z" fill="#F7144F"/>
<path d="M28.46 57.36C22.35 57.36 16.97 53.33 15.29 47.46C14.02 43.06 11.9 38.93 8.97998 35.24L18.22 27.91C24.92 36.36 28.46 46.54 28.46 57.36V57.36Z" fill="white"/>
<path d="M53.04 57.36C53.04 46.16 57.02 35.28 64.25 26.74L73.25 34.36C70 38.2 67.6201 42.68 66.2401 47.46C64.5401 53.33 59.16 57.37 53.04 57.37V57.36Z" fill="white"/>
<path d="M47.2099 11.5H35.4199V57.36H47.2099V11.5Z" fill="white"/>
<path d="M53.0402 57.36C53.0402 60.31 51.8402 62.99 49.9102 64.92C47.9702 66.85 45.3002 68.05 42.3502 68.05H39.1702C33.2602 68.05 28.4702 63.26 28.4702 57.35H53.0502L53.0402 57.36Z" fill="white"/>
</g>
<defs>
<clipPath id="clip0_202_279">
<rect width="82" height="96" fill="white"/>
</clipPath>
</defs>
</svg>
