<?xml version="1.0" encoding="UTF-8"?><svg id="a" xmlns="http://www.w3.org/2000/svg" viewBox="0 0 372.23 372.23"><defs><style>.b{fill:#f7144f;}.c{fill:#fff;}</style></defs><path class="b" d="M153.82,137.98v58.22c0,3.98-1.03,7.92-2.98,11.39-1.95,3.47-4.77,6.4-8.17,8.47l-29.8,18.19-30.09-18.19c-3.42-2.07-6.27-5-8.23-8.48-1.96-3.48-3-7.43-3-11.43v-58.17h82.27Z"/><g><path class="c" d="M100.03,195.36h0c-6.11,0-11.49-4.03-13.17-9.9-1.27-4.4-3.39-8.53-6.31-12.22l9.24-7.33c6.7,8.45,10.24,18.63,10.24,29.45Z"/><path class="c" d="M124.61,195.36h0c0-11.2,3.98-22.08,11.21-30.62l9,7.62c-3.25,3.84-5.63,8.32-7.01,13.1-1.7,5.87-7.08,9.91-13.2,9.91Z"/><rect class="c" x="106.99" y="149.5" width="11.79" height="45.86"/><path class="c" d="M124.61,195.36c0,2.95-1.2,5.63-3.13,7.56-1.94,1.93-4.61,3.13-7.56,3.13h-3.18c-5.91,0-10.7-4.79-10.7-10.7h24.58Z"/></g><g><g><path d="M180.11,153.82c.02,.78,.18,1.42,.51,1.91h-3.2c-.28-.46-.42-1.11-.44-1.96l-.07-1.8c-.05-1-.27-1.69-.68-2.09s-1.06-.59-1.95-.59h-4.06v6.43h-3.11v-16.41h7.45c1.83,0,3.25,.41,4.26,1.24,1.01,.83,1.52,1.96,1.52,3.39,0,1.97-.91,3.27-2.74,3.92,.83,.26,1.43,.67,1.79,1.23,.36,.56,.56,1.32,.59,2.27l.14,2.44Zm-9.89-6.96h4.15c.88,0,1.56-.22,2.04-.66,.48-.44,.73-1.07,.73-1.9,0-.78-.25-1.38-.75-1.8-.5-.41-1.21-.62-2.13-.62h-4.03v4.98Z"/><path d="M186.89,156.01c-1.81,0-3.27-.57-4.38-1.71-1.12-1.12-1.68-2.63-1.68-4.52s.56-3.4,1.68-4.52c1.11-1.14,2.57-1.71,4.38-1.71s3.27,.56,4.38,1.68c1.11,1.12,1.66,2.64,1.66,4.54s-.55,3.38-1.66,4.52c-1.11,1.14-2.57,1.71-4.38,1.71Zm2.27-3.4c.55-.67,.82-1.61,.82-2.82s-.27-2.16-.82-2.82c-.55-.67-1.3-1-2.27-1s-1.73,.33-2.27,.99c-.55,.66-.82,1.61-.82,2.84s.27,2.17,.82,2.84c.55,.66,1.3,.99,2.27,.99s1.73-.33,2.27-1Z"/><path d="M200.91,143.84h3.04l-4.59,12.86c-.49,1.35-1.11,2.28-1.84,2.79-.75,.52-1.84,.78-3.27,.78-.48,0-.9-.02-1.27-.07v-2.28h1.11c.63,0,1.11-.18,1.45-.53,.34-.35,.51-.81,.51-1.38s-.18-1.37-.55-2.4l-3.46-9.77h3.14l.97,2.97c.68,2.12,1.31,4.33,1.89,6.64,.46-1.74,1.1-3.94,1.91-6.62l.97-3Z"/><path d="M211.23,155.74c-.14-.25-.25-.73-.32-1.45-.8,1.15-2.07,1.73-3.83,1.73-1.31,0-2.35-.32-3.12-.95-.78-.63-1.16-1.51-1.16-2.63,0-2.17,1.52-3.4,4.56-3.71l1.8-.16c.6-.08,1.03-.22,1.29-.43,.26-.21,.39-.52,.39-.93,0-.51-.17-.88-.5-1.12-.33-.24-.89-.36-1.67-.36-.85,0-1.45,.14-1.82,.43-.37,.28-.58,.77-.65,1.46h-2.86c.17-2.7,1.95-4.06,5.35-4.06s4.96,1.19,4.96,3.57v6.34c0,1.05,.16,1.8,.48,2.26h-2.9Zm-1.24-2.55c.57-.5,.85-1.22,.85-2.16v-1.08c-.28,.25-.73,.41-1.36,.48l-1.57,.18c-.77,.09-1.32,.27-1.65,.54-.33,.27-.5,.66-.5,1.16s.17,.9,.52,1.19c.35,.28,.84,.43,1.49,.43,.91,0,1.64-.25,2.21-.75Z"/><path d="M214.94,155.74v-16.41h2.9v16.41h-2.9Z"/><path d="M225.48,146.06h-2.35v6.43c0,.38,.1,.65,.31,.81,.21,.15,.56,.23,1.05,.23h.99v2.21c-.63,.06-1.14,.09-1.52,.09-1.29,0-2.23-.24-2.82-.73-.59-.48-.89-1.26-.89-2.32v-6.73h-1.84v-2.21h1.84v-3.46h2.88v3.46h2.35v2.21Z"/><path d="M234.49,143.84h3.04l-4.59,12.86c-.49,1.35-1.11,2.28-1.84,2.79-.75,.52-1.84,.78-3.27,.78-.48,0-.9-.02-1.27-.07v-2.28h1.11c.63,0,1.11-.18,1.45-.53,.34-.35,.51-.81,.51-1.38s-.18-1.37-.55-2.4l-3.46-9.77h3.14l.97,2.97c.68,2.12,1.31,4.33,1.89,6.64,.46-1.74,1.1-3.94,1.91-6.62l.97-3Z"/></g><g><path d="M179.21,161.53h-8.99v3.87h8.14v2.67h-8.14v4.29h8.95v2.79h-12.06v-16.41h12.1v2.79Z"/><path d="M188.92,158.74h2.9v16.41h-2.81v-1.66c-.88,1.29-2.13,1.94-3.76,1.94s-2.94-.57-3.9-1.71c-.97-1.14-1.45-2.64-1.45-4.52s.48-3.42,1.45-4.54c.94-1.12,2.24-1.68,3.9-1.68s2.82,.61,3.67,1.82v-6.06Zm-3,14.29c.95,0,1.71-.33,2.26-.99,.54-.66,.81-1.61,.81-2.84s-.27-2.17-.81-2.84c-.54-.66-1.29-.99-2.26-.99s-1.68,.35-2.22,1.04c-.55,.69-.82,1.65-.82,2.88s.27,2.16,.81,2.79c.54,.63,1.28,.95,2.24,.95Z"/><path d="M201.51,163.26h2.9v11.9h-2.81v-1.73c-.91,1.34-2.15,2.01-3.73,2.01-1.28,0-2.29-.37-3.03-1.12s-1.12-1.8-1.12-3.17v-7.88h2.9v7.4c0,1.51,.75,2.26,2.24,2.26,.74,0,1.36-.27,1.88-.8,.51-.53,.77-1.26,.77-2.2v-6.66Z"/><path d="M207.38,173.73c-1.08-1.12-1.61-2.63-1.61-4.52s.54-3.42,1.61-4.54c1.06-1.12,2.48-1.68,4.27-1.68,1.55,0,2.82,.41,3.8,1.23s1.56,1.93,1.73,3.33h-2.9c-.14-.69-.44-1.22-.9-1.59-.46-.37-1.04-.55-1.73-.55-.91,0-1.62,.33-2.13,.98-.51,.65-.77,1.59-.77,2.82s.26,2.17,.78,2.82c.52,.65,1.23,.98,2.12,.98,.71,0,1.3-.2,1.79-.59s.78-.96,.89-1.69h2.9c-.15,1.43-.74,2.57-1.75,3.42-1.01,.85-2.29,1.28-3.83,1.28-1.75,0-3.17-.57-4.27-1.71Z"/><path d="M226.7,175.16c-.14-.25-.25-.73-.32-1.45-.8,1.15-2.07,1.73-3.83,1.73-1.31,0-2.35-.32-3.12-.95-.78-.63-1.16-1.51-1.16-2.63,0-2.17,1.52-3.4,4.56-3.71l1.8-.16c.6-.08,1.03-.22,1.29-.43,.26-.21,.39-.52,.39-.93,0-.51-.17-.88-.5-1.12-.33-.24-.89-.36-1.67-.36-.85,0-1.45,.14-1.82,.43-.37,.28-.58,.77-.65,1.46h-2.86c.17-2.7,1.95-4.06,5.35-4.06s4.96,1.19,4.96,3.57v6.34c0,1.05,.16,1.8,.48,2.26h-2.9Zm-1.25-2.55c.57-.5,.85-1.22,.85-2.16v-1.08c-.28,.25-.73,.41-1.36,.48l-1.57,.18c-.77,.09-1.32,.27-1.65,.54-.33,.27-.5,.66-.5,1.16s.17,.9,.52,1.19c.35,.28,.84,.43,1.49,.43,.91,0,1.64-.25,2.21-.75Z"/><path d="M236.71,165.47h-2.35v6.43c0,.38,.1,.65,.31,.81s.56,.23,1.05,.23h.99v2.21c-.63,.06-1.14,.09-1.52,.09-1.29,0-2.23-.24-2.82-.73-.59-.48-.89-1.26-.89-2.32v-6.73h-1.84v-2.21h1.84v-3.46h2.88v3.46h2.35v2.21Z"/><path d="M237.95,175.16v-11.9h2.9v11.9h-2.9Zm.02-13.44v-2.72h2.86v2.72h-2.86Z"/><path d="M247.82,175.43c-1.81,0-3.27-.57-4.38-1.71-1.12-1.12-1.68-2.63-1.68-4.52s.56-3.4,1.68-4.52c1.11-1.14,2.57-1.71,4.38-1.71s3.27,.56,4.38,1.68,1.66,2.64,1.66,4.54-.55,3.38-1.66,4.52c-1.11,1.14-2.57,1.71-4.38,1.71Zm2.27-3.4c.55-.67,.82-1.61,.82-2.82s-.27-2.16-.82-2.82-1.3-1-2.27-1-1.72,.33-2.27,.99c-.55,.66-.82,1.61-.82,2.84s.27,2.17,.82,2.84c.55,.66,1.3,.99,2.27,.99s1.73-.33,2.27-1Z"/><path d="M264.34,164.1c.75,.75,1.12,1.8,1.12,3.17v7.88h-2.9v-7.4c0-1.51-.75-2.26-2.24-2.26-.74,0-1.36,.27-1.88,.8s-.77,1.26-.77,2.2v6.66h-2.9v-11.9h2.81v1.71c.91-1.32,2.14-1.98,3.71-1.98,1.29,0,2.31,.37,3.05,1.12Z"/></g><g><path d="M173.38,178.26c2.63,0,4.66,.73,6.09,2.19,1.43,1.48,2.14,3.48,2.14,6.02s-.71,4.53-2.14,5.99c-1.43,1.48-3.46,2.21-6.09,2.21h-6.27v-16.41h6.27Zm-.05,13.74c1.61,0,2.86-.47,3.73-1.42,.88-.95,1.31-2.32,1.31-4.12s-.44-3.17-1.31-4.12c-.88-.95-2.12-1.42-3.73-1.42h-3.11v11.07h3.11Z"/><path d="M194.34,189.62h-8.9c.11,1.01,.43,1.78,.96,2.29,.53,.51,1.24,.77,2.13,.77,1.32,0,2.23-.57,2.72-1.71h2.79c-.31,1.21-.95,2.18-1.94,2.89-.98,.71-2.18,1.07-3.6,1.07-1.77,0-3.2-.57-4.29-1.71-1.09-1.14-1.64-2.64-1.64-4.52s.54-3.38,1.61-4.52c1.09-1.14,2.51-1.71,4.26-1.71s3.23,.59,4.29,1.78c1.06,1.18,1.59,2.74,1.59,4.66v.69Zm-8.88-2.03h5.97c-.12-.88-.45-1.57-.97-2.07-.52-.51-1.2-.76-2.03-.76-1.71,0-2.7,.95-2.97,2.84Z"/><path d="M203.21,182.77h3.02l-4.43,11.9h-3.34l-4.4-11.9h3.11l1.15,3.2c.54,1.68,1.16,3.7,1.87,6.06,.57-1.91,1.19-3.93,1.87-6.09l1.15-3.18Z"/><path d="M217.64,189.62h-8.9c.11,1.01,.43,1.78,.96,2.29,.53,.51,1.24,.77,2.13,.77,1.32,0,2.23-.57,2.72-1.71h2.79c-.31,1.21-.95,2.18-1.94,2.89-.98,.71-2.18,1.07-3.6,1.07-1.77,0-3.2-.57-4.29-1.71-1.09-1.14-1.64-2.64-1.64-4.52s.54-3.38,1.61-4.52c1.09-1.14,2.51-1.71,4.26-1.71s3.23,.59,4.29,1.78c1.06,1.18,1.59,2.74,1.59,4.66v.69Zm-8.88-2.03h5.97c-.12-.88-.45-1.57-.97-2.07-.52-.51-1.2-.76-2.03-.76-1.71,0-2.7,.95-2.97,2.84Z"/><path d="M219.05,194.67v-16.41h2.9v16.41h-2.9Z"/><path d="M229.38,194.95c-1.81,0-3.27-.57-4.38-1.71-1.12-1.12-1.68-2.63-1.68-4.52s.56-3.4,1.68-4.52c1.11-1.14,2.57-1.71,4.38-1.71s3.27,.56,4.38,1.68c1.11,1.12,1.66,2.64,1.66,4.54s-.55,3.38-1.66,4.52c-1.11,1.14-2.57,1.71-4.38,1.71Zm2.27-3.4c.55-.67,.82-1.61,.82-2.82s-.27-2.16-.82-2.82-1.3-1-2.27-1-1.72,.33-2.27,.99c-.55,.66-.82,1.61-.82,2.84s.27,2.17,.82,2.84c.55,.66,1.3,.99,2.27,.99s1.73-.33,2.27-1Z"/><path d="M247.27,184.18c.95,1.14,1.43,2.65,1.43,4.54s-.48,3.38-1.43,4.52c-.97,1.14-2.27,1.71-3.9,1.71s-2.84-.61-3.69-1.82v6.06h-2.9v-16.41h2.79v1.71c.86-1.32,2.13-1.98,3.8-1.98s2.93,.56,3.9,1.68Zm-4.59,8.37c.95,0,1.71-.35,2.26-1.04,.54-.68,.81-1.64,.81-2.88s-.27-2.14-.8-2.78c-.53-.64-1.29-.96-2.27-.96s-1.72,.33-2.26,.99c-.54,.66-.81,1.61-.81,2.84s.28,2.19,.83,2.84c.52,.66,1.27,.99,2.24,.99Z"/><path d="M266.69,183.65c.73,.77,1.1,1.82,1.1,3.16v7.86h-2.9v-7.4c0-1.51-.68-2.26-2.05-2.26-.74,0-1.33,.27-1.79,.8-.45,.53-.68,1.3-.68,2.32v6.55h-2.88v-7.4c0-1.51-.69-2.26-2.08-2.26-.72,0-1.31,.27-1.76,.8-.45,.53-.68,1.3-.68,2.32v6.55h-2.91v-11.9h2.81v1.71c.81-1.32,1.94-1.98,3.39-1.98,1.81,0,3.04,.74,3.69,2.21,.89-1.48,2.12-2.21,3.69-2.21,1.31,0,2.32,.38,3.05,1.15Z"/><path d="M280.9,189.62h-8.9c.11,1.01,.43,1.78,.96,2.29,.53,.51,1.24,.77,2.13,.77,1.32,0,2.23-.57,2.72-1.71h2.79c-.31,1.21-.95,2.18-1.94,2.89-.98,.71-2.18,1.07-3.6,1.07-1.77,0-3.2-.57-4.29-1.71-1.09-1.14-1.64-2.64-1.64-4.52s.54-3.38,1.61-4.52c1.09-1.14,2.51-1.71,4.26-1.71s3.23,.59,4.29,1.78c1.06,1.18,1.59,2.74,1.59,4.66v.69Zm-8.88-2.03h5.97c-.12-.88-.45-1.57-.97-2.07-.52-.51-1.2-.76-2.03-.76-1.71,0-2.7,.95-2.97,2.84Z"/><path d="M291.88,183.62c.75,.75,1.12,1.8,1.12,3.17v7.88h-2.9v-7.4c0-1.51-.75-2.26-2.24-2.26-.74,0-1.36,.27-1.88,.8-.51,.53-.77,1.26-.77,2.2v6.66h-2.91v-11.9h2.81v1.71c.91-1.32,2.14-1.98,3.71-1.98,1.29,0,2.31,.37,3.05,1.12Z"/><path d="M300.68,184.99h-2.35v6.43c0,.38,.1,.65,.31,.81,.21,.15,.56,.23,1.05,.23h.99v2.21c-.63,.06-1.14,.09-1.52,.09-1.29,0-2.23-.24-2.82-.73-.59-.48-.89-1.26-.89-2.32v-6.73h-1.84v-2.21h1.84v-3.46h2.88v3.46h2.35v2.21Z"/></g><g><path d="M178.71,200.46h-8.48v3.87h7.72v2.67h-7.72v7.08h-3.11v-16.41h11.6v2.79Z"/><path d="M185.02,214.37c-1.81,0-3.27-.57-4.38-1.71-1.12-1.12-1.68-2.63-1.68-4.52s.56-3.4,1.68-4.52c1.11-1.14,2.57-1.71,4.38-1.71s3.27,.56,4.38,1.68,1.66,2.64,1.66,4.54-.55,3.38-1.66,4.52c-1.11,1.14-2.57,1.71-4.38,1.71Zm2.27-3.4c.55-.67,.82-1.61,.82-2.82s-.27-2.16-.82-2.82-1.3-1-2.27-1-1.73,.33-2.27,.99c-.55,.66-.82,1.61-.82,2.84s.27,2.17,.82,2.84c.55,.66,1.3,.99,2.27,.99s1.73-.33,2.27-1Z"/><path d="M199.91,202.19h2.9v11.9h-2.81v-1.73c-.91,1.34-2.15,2.01-3.73,2.01-1.28,0-2.29-.37-3.03-1.12s-1.12-1.8-1.12-3.17v-7.88h2.9v7.4c0,1.51,.75,2.26,2.24,2.26,.74,0,1.36-.27,1.88-.8,.51-.53,.77-1.26,.77-2.2v-6.66Z"/><path d="M214.29,203.03c.75,.75,1.12,1.8,1.12,3.17v7.88h-2.9v-7.4c0-1.51-.75-2.26-2.24-2.26-.74,0-1.36,.27-1.88,.8s-.77,1.26-.77,2.2v6.66h-2.9v-11.9h2.81v1.71c.91-1.32,2.14-1.98,3.71-1.98,1.29,0,2.31,.37,3.05,1.12Z"/><path d="M225.78,197.67h2.9v16.41h-2.81v-1.66c-.88,1.29-2.13,1.94-3.76,1.94s-2.94-.57-3.9-1.71c-.97-1.14-1.45-2.64-1.45-4.52s.48-3.42,1.45-4.54c.94-1.12,2.24-1.68,3.9-1.68s2.82,.61,3.67,1.82v-6.06Zm-3,14.29c.95,0,1.71-.33,2.26-.99,.54-.66,.81-1.61,.81-2.84s-.27-2.17-.81-2.84c-.54-.66-1.29-.99-2.26-.99s-1.68,.35-2.22,1.04-.82,1.65-.82,2.88,.27,2.16,.81,2.79c.54,.63,1.28,.95,2.24,.95Z"/><path d="M238.37,214.09c-.14-.25-.25-.73-.32-1.45-.8,1.15-2.07,1.73-3.83,1.73-1.31,0-2.35-.32-3.12-.95s-1.16-1.51-1.16-2.63c0-2.17,1.52-3.4,4.56-3.71l1.8-.16c.6-.08,1.03-.22,1.29-.43,.26-.21,.39-.52,.39-.93,0-.51-.17-.88-.5-1.12-.33-.24-.89-.36-1.67-.36-.85,0-1.45,.14-1.82,.43-.37,.28-.58,.77-.65,1.46h-2.86c.17-2.7,1.95-4.06,5.35-4.06s4.96,1.19,4.96,3.57v6.34c0,1.05,.16,1.8,.48,2.26h-2.9Zm-1.25-2.55c.57-.5,.85-1.22,.85-2.16v-1.08c-.28,.25-.73,.41-1.36,.48l-1.57,.18c-.77,.09-1.32,.27-1.65,.54-.33,.27-.5,.66-.5,1.16s.17,.9,.52,1.19c.35,.28,.84,.43,1.49,.43,.91,0,1.64-.25,2.21-.75Z"/><path d="M248.37,204.41h-2.35v6.43c0,.38,.1,.65,.31,.81,.21,.15,.56,.23,1.05,.23h.99v2.21c-.63,.06-1.14,.09-1.52,.09-1.29,0-2.23-.24-2.82-.73-.59-.48-.89-1.26-.89-2.32v-6.73h-1.84v-2.21h1.84v-3.46h2.88v3.46h2.35v2.21Z"/><path d="M249.62,214.09v-11.9h2.9v11.9h-2.9Zm.02-13.44v-2.72h2.86v2.72h-2.86Z"/><path d="M259.94,214.37c-1.81,0-3.27-.57-4.38-1.71-1.12-1.12-1.68-2.63-1.68-4.52s.56-3.4,1.68-4.52c1.11-1.14,2.57-1.71,4.38-1.71s3.27,.56,4.38,1.68c1.11,1.12,1.66,2.64,1.66,4.54s-.55,3.38-1.66,4.52c-1.11,1.14-2.57,1.71-4.38,1.71Zm2.27-3.4c.55-.67,.82-1.61,.82-2.82s-.27-2.16-.82-2.82c-.55-.67-1.3-1-2.27-1s-1.73,.33-2.27,.99c-.55,.66-.82,1.61-.82,2.84s.27,2.17,.82,2.84c.55,.66,1.3,.99,2.27,.99s1.72-.33,2.27-1Z"/><path d="M276.92,203.03c.75,.75,1.12,1.8,1.12,3.17v7.88h-2.9v-7.4c0-1.51-.75-2.26-2.24-2.26-.74,0-1.36,.27-1.88,.8s-.77,1.26-.77,2.2v6.66h-2.9v-11.9h2.81v1.71c.91-1.32,2.14-1.98,3.71-1.98,1.29,0,2.31,.37,3.05,1.12Z"/></g><path d="M285.08,174.79h-3.6l-1.18-1.34c-1.38,1.14-3,1.71-4.85,1.71-1.71,0-3.07-.45-4.05-1.34-1-.88-1.5-2.01-1.5-3.39,0-1.03,.28-1.92,.85-2.66,.57-.74,1.46-1.42,2.67-2.03-.64-.73-1.09-1.37-1.35-1.91-.27-.55-.4-1.12-.4-1.71,0-1.11,.41-2.03,1.23-2.78,.8-.74,1.91-1.12,3.32-1.12,1.34,0,2.42,.34,3.26,1.02,.85,.68,1.27,1.59,1.27,2.73,0,1.71-1.12,3.15-3.35,4.3l2.82,3.14c.33-.82,.52-1.68,.55-2.6h2.64c-.06,1.67-.52,3.2-1.37,4.6l3.03,3.37Zm-6.4-3.16l-3.8-4.23c-1.32,.73-1.98,1.66-1.98,2.8,0,.7,.26,1.29,.77,1.78,.52,.49,1.19,.73,2.03,.73,1.11,0,2.1-.36,2.98-1.07Zm-3.62-10.67c-.33,.3-.5,.68-.5,1.15,0,.67,.46,1.51,1.39,2.53l.05,.05c1.4-.77,2.09-1.63,2.09-2.57,0-.46-.17-.83-.5-1.14-.33-.3-.76-.46-1.28-.46s-.92,.15-1.25,.44Z"/></g></svg>