<svg width="122" height="51" viewBox="0 0 122 51" fill="none" xmlns="http://www.w3.org/2000/svg">
<g clip-path="url(#clip0_191_2)">
<path d="M43.4701 -0.239998V30.83C43.4701 32.95 42.9201 35.05 41.8801 36.91C40.8401 38.76 39.3301 40.33 37.5201 41.43L21.6101 51.14L5.55006 41.43C3.72006 40.33 2.21006 38.76 1.16006 36.9C0.110059 35.04 -0.439941 32.93 -0.439941 30.8V-0.239998H43.4701Z" fill="#F7144F"/>
<path d="M14.7599 30.38C11.4999 30.38 8.62986 28.23 7.72986 25.1C7.04986 22.75 5.91986 20.55 4.35986 18.58L9.28986 14.67C12.8699 19.18 14.7599 24.61 14.7599 30.38Z" fill="white"/>
<path d="M27.8799 30.38C27.8799 24.4 29.9999 18.6 33.8599 14.04L38.6599 18.1C36.9199 20.15 35.6599 22.54 34.9199 25.09C34.0099 28.22 31.1399 30.38 27.8799 30.38Z" fill="white"/>
<path d="M24.7597 5.91H18.4697V30.39H24.7597V5.91Z" fill="white"/>
<path d="M27.8798 30.39C27.8798 31.97 27.2398 33.39 26.2098 34.43C25.1798 35.46 23.7498 36.1 22.1698 36.1H20.4698C17.3198 36.1 14.7598 33.54 14.7598 30.39H27.8798Z" fill="white"/>
<path d="M57.5001 8.22C57.5001 8.64 57.6001 8.98 57.7701 9.24H56.0601C55.9101 8.99 55.8301 8.65 55.8301 8.19L55.7901 7.23C55.7701 6.7 55.6401 6.33 55.4301 6.12C55.2201 5.91 54.8701 5.81 54.3901 5.81H52.2201V9.24H50.5601V0.480003H54.5301C55.5101 0.480003 56.2601 0.699999 56.8101 1.14C57.3501 1.58 57.6201 2.19 57.6201 2.95C57.6201 4 57.1301 4.7 56.1601 5.04C56.6001 5.18 56.9201 5.4 57.1101 5.7C57.3001 6 57.4101 6.4 57.4201 6.91L57.4901 8.21L57.5001 8.22ZM52.2201 4.5H54.4301C54.9001 4.5 55.2601 4.38 55.5201 4.15C55.7801 3.92 55.9101 3.58 55.9101 3.13C55.9101 2.71 55.7801 2.39 55.5101 2.17C55.2401 1.95 54.8601 1.84 54.3701 1.84H52.2201V4.5Z" fill="white"/>
<path d="M61.1199 9.39C60.1499 9.39 59.3699 9.09 58.7799 8.48C58.1799 7.88 57.8799 7.08 57.8799 6.07C57.8799 5.06 58.1799 4.26 58.7799 3.66C59.3699 3.05 60.1499 2.75 61.1199 2.75C62.0899 2.75 62.8699 3.05 63.4599 3.65C64.0499 4.25 64.3499 5.06 64.3499 6.07C64.3499 7.08 64.0499 7.87 63.4599 8.48C62.8699 9.09 62.0899 9.39 61.1199 9.39ZM62.3299 7.58C62.6199 7.22 62.7699 6.72 62.7699 6.07C62.7699 5.42 62.6199 4.92 62.3299 4.56C62.0399 4.2 61.6299 4.02 61.1199 4.02C60.6099 4.02 60.1999 4.2 59.9099 4.55C59.6199 4.9 59.4699 5.41 59.4699 6.06C59.4699 6.71 59.6199 7.22 59.9099 7.57C60.1999 7.92 60.6099 8.1 61.1199 8.1C61.6299 8.1 62.0399 7.92 62.3299 7.56V7.58Z" fill="white"/>
<path d="M68.6001 2.89H70.2201L67.7701 9.76C67.5101 10.48 67.1801 10.98 66.7901 11.25C66.3901 11.53 65.8101 11.67 65.0401 11.67C64.7901 11.67 64.5601 11.66 64.3601 11.63V10.41H64.9501C65.2901 10.41 65.5401 10.32 65.7301 10.13C65.9101 9.94 66.0001 9.7 66.0001 9.39C66.0001 9.08 65.9001 8.66 65.7001 8.11L63.8501 2.89H65.5201L66.0401 4.48C66.4001 5.61 66.7401 6.79 67.0501 8.02C67.3001 7.09 67.6401 5.92 68.0701 4.49L68.5901 2.89H68.6001Z" fill="white"/>
<path d="M74.1099 9.24C74.0399 9.11 73.9799 8.85 73.9399 8.46C73.5099 9.08 72.8299 9.38 71.8999 9.38C71.1999 9.38 70.6499 9.21 70.2299 8.88C69.8199 8.54 69.6099 8.08 69.6099 7.48C69.6099 6.32 70.4199 5.66 72.0499 5.5L73.0099 5.41C73.3299 5.37 73.5599 5.29 73.6999 5.18C73.8399 5.07 73.9099 4.9 73.9099 4.68C73.9099 4.41 73.8199 4.21 73.6499 4.08C73.4699 3.95 73.1799 3.89 72.7599 3.89C72.3099 3.89 71.9799 3.97 71.7899 4.12C71.5899 4.27 71.4799 4.53 71.4499 4.9H69.9199C70.0099 3.46 70.9599 2.73 72.7699 2.73C74.5799 2.73 75.4199 3.37 75.4199 4.64V8.02C75.4199 8.58 75.5099 8.98 75.6799 9.23H74.1299L74.1099 9.24ZM73.4499 7.88C73.7499 7.61 73.9099 7.23 73.9099 6.73V6.15C73.7599 6.28 73.5199 6.37 73.1799 6.41L72.3399 6.51C71.9299 6.56 71.6399 6.66 71.4599 6.8C71.2799 6.94 71.1999 7.15 71.1999 7.42C71.1999 7.69 71.2899 7.9 71.4799 8.05C71.6599 8.2 71.9299 8.28 72.2699 8.28C72.7499 8.28 73.1499 8.15 73.4499 7.88Z" fill="white"/>
<path d="M76.0898 9.24V0.480003H77.6398V9.24H76.0898Z" fill="white"/>
<path d="M81.7102 4.07H80.4602V7.5C80.4602 7.71 80.5202 7.85 80.6302 7.93C80.7402 8.01 80.9302 8.05 81.1902 8.05H81.7202V9.23C81.3802 9.26 81.1102 9.28 80.9102 9.28C80.2202 9.28 79.7202 9.15 79.4002 8.89C79.0802 8.63 78.9302 8.22 78.9302 7.65V4.06H77.9502V2.88H78.9302V1.03H80.4702V2.88H81.7202V4.06L81.7102 4.07Z" fill="white"/>
<path d="M86.52 2.89H88.14L85.69 9.76C85.43 10.48 85.1 10.98 84.71 11.25C84.31 11.53 83.73 11.67 82.96 11.67C82.71 11.67 82.48 11.66 82.28 11.63V10.41H82.87C83.21 10.41 83.46 10.32 83.65 10.13C83.83 9.94 83.92 9.7 83.92 9.39C83.92 9.08 83.82 8.66 83.62 8.11L81.77 2.89H83.44L83.96 4.48C84.32 5.61 84.66 6.79 84.97 8.02C85.22 7.09 85.56 5.92 85.99 4.49L86.51 2.89H86.52Z" fill="white"/>
<path d="M57.0201 12.33H52.2201V14.4H56.5601V15.83H52.2201V18.12H56.9901V19.61H50.5601V10.85H57.0201V12.34V12.33Z" fill="white"/>
<path d="M62.1999 10.84H63.7499V19.6H62.2499V18.71C61.7799 19.4 61.1099 19.74 60.2399 19.74C59.3699 19.74 58.6699 19.44 58.1599 18.83C57.6399 18.22 57.3799 17.42 57.3799 16.42C57.3799 15.42 57.6399 14.59 58.1599 14C58.6599 13.4 59.3499 13.1 60.2399 13.1C61.1299 13.1 61.7499 13.42 62.1999 14.07V10.83V10.84ZM60.5999 18.47C61.1099 18.47 61.5099 18.29 61.8099 17.94C62.0999 17.59 62.2399 17.08 62.2399 16.43C62.2399 15.78 62.0999 15.27 61.8099 14.92C61.5199 14.57 61.1199 14.39 60.5999 14.39C60.0799 14.39 59.6999 14.57 59.4099 14.94C59.1199 15.31 58.9699 15.82 58.9699 16.48C58.9699 17.14 59.1099 17.63 59.3999 17.97C59.6899 18.31 60.0899 18.47 60.5899 18.47H60.5999Z" fill="white"/>
<path d="M68.9202 13.25H70.4703V19.6H68.9703V18.68C68.4903 19.39 67.8203 19.75 66.9803 19.75C66.3003 19.75 65.7603 19.55 65.3603 19.15C64.9603 18.75 64.7603 18.19 64.7603 17.46V13.25H66.3102V17.2C66.3102 18 66.7103 18.41 67.5003 18.41C67.8903 18.41 68.2303 18.27 68.5003 17.99C68.7703 17.71 68.9103 17.32 68.9103 16.82V13.26L68.9202 13.25Z" fill="white"/>
<path d="M72.0499 18.84C71.4799 18.24 71.1899 17.44 71.1899 16.43C71.1899 15.42 71.4799 14.6 72.0499 14.01C72.6199 13.41 73.3699 13.11 74.3299 13.11C75.1599 13.11 75.8399 13.33 76.3599 13.77C76.8799 14.21 77.1899 14.8 77.2799 15.55H75.7299C75.6599 15.18 75.4999 14.9 75.2499 14.7C74.9999 14.5 74.6999 14.4 74.3299 14.4C73.8499 14.4 73.4699 14.57 73.1899 14.92C72.9199 15.27 72.7799 15.77 72.7799 16.43C72.7799 17.09 72.9199 17.59 73.1999 17.94C73.4799 18.29 73.8599 18.46 74.3299 18.46C74.7099 18.46 75.0299 18.36 75.2799 18.15C75.5299 17.94 75.6999 17.64 75.7499 17.25H77.2999C77.2199 18.01 76.9099 18.62 76.3699 19.08C75.8299 19.54 75.1499 19.76 74.3299 19.76C73.3899 19.76 72.6399 19.46 72.0499 18.85V18.84Z" fill="white"/>
<path d="M82.3599 19.6C82.2899 19.47 82.2299 19.21 82.1899 18.82C81.7599 19.44 81.0799 19.74 80.1499 19.74C79.4499 19.74 78.8999 19.57 78.4799 19.24C78.0699 18.9 77.8599 18.44 77.8599 17.84C77.8599 16.68 78.6699 16.02 80.2999 15.86L81.2599 15.77C81.5799 15.73 81.8099 15.65 81.9499 15.54C82.0899 15.43 82.1599 15.26 82.1599 15.04C82.1599 14.77 82.0699 14.57 81.8999 14.44C81.7199 14.31 81.4299 14.25 81.0099 14.25C80.5599 14.25 80.2299 14.33 80.0399 14.48C79.8399 14.63 79.7299 14.89 79.6999 15.26H78.1699C78.2599 13.82 79.2099 13.09 81.0199 13.09C82.8299 13.09 83.6699 13.73 83.6699 15V18.38C83.6699 18.94 83.7599 19.34 83.9299 19.59H82.3799L82.3599 19.6ZM81.6999 18.24C81.9999 17.97 82.1599 17.59 82.1599 17.09V16.51C82.0099 16.64 81.7699 16.73 81.4299 16.77L80.5899 16.87C80.1799 16.92 79.8899 17.02 79.7099 17.16C79.5299 17.3 79.4499 17.51 79.4499 17.78C79.4499 18.05 79.5399 18.26 79.7299 18.41C79.9099 18.56 80.1799 18.64 80.5199 18.64C80.9999 18.64 81.3999 18.51 81.6999 18.24Z" fill="white"/>
<path d="M87.6999 14.44H86.4499V17.87C86.4499 18.08 86.5099 18.22 86.6199 18.3C86.7299 18.38 86.9199 18.42 87.1799 18.42H87.7099V19.6C87.3699 19.63 87.0999 19.65 86.8999 19.65C86.2099 19.65 85.7099 19.52 85.3899 19.26C85.0699 19 84.9199 18.59 84.9199 18.02V14.43H83.9399V13.25H84.9199V11.4H86.4599V13.25H87.7099V14.43L87.6999 14.44Z" fill="white"/>
<path d="M88.3701 19.6V13.25H89.9201V19.6H88.3701ZM88.3801 12.43V10.98H89.9101V12.43H88.3801Z" fill="white"/>
<path d="M93.6301 19.75C92.6601 19.75 91.8801 19.45 91.2901 18.84C90.6901 18.24 90.3901 17.44 90.3901 16.43C90.3901 15.42 90.6901 14.62 91.2901 14.02C91.8801 13.41 92.6601 13.11 93.6301 13.11C94.6001 13.11 95.3801 13.41 95.9701 14.01C96.5601 14.61 96.8601 15.42 96.8601 16.43C96.8601 17.44 96.5601 18.23 95.9701 18.84C95.3801 19.45 94.6001 19.75 93.6301 19.75ZM94.8401 17.94C95.1301 17.58 95.2801 17.08 95.2801 16.43C95.2801 15.78 95.1301 15.28 94.8401 14.92C94.5501 14.56 94.1401 14.38 93.6301 14.38C93.1201 14.38 92.7101 14.56 92.4201 14.91C92.1301 15.26 91.9801 15.77 91.9801 16.42C91.9801 17.07 92.1301 17.58 92.4201 17.93C92.7101 18.28 93.1201 18.46 93.6301 18.46C94.1401 18.46 94.5501 18.28 94.8401 17.92V17.94Z" fill="white"/>
<path d="M102.45 13.7C102.85 14.1 103.05 14.66 103.05 15.39V19.6H101.5V15.65C101.5 14.85 101.1 14.44 100.31 14.44C99.9201 14.44 99.5801 14.58 99.3101 14.86C99.0401 15.14 98.9001 15.53 98.9001 16.03V19.59H97.3501V13.24H98.8501V14.15C99.3301 13.44 99.9901 13.09 100.83 13.09C101.52 13.09 102.06 13.29 102.46 13.69L102.45 13.7Z" fill="white"/>
<path d="M53.9101 21.26C55.3101 21.26 56.4001 21.65 57.1601 22.43C57.9201 23.22 58.3001 24.29 58.3001 25.64C58.3001 26.99 57.9201 28.06 57.1601 28.84C56.4001 29.63 55.3101 30.02 53.9101 30.02H50.5601V21.26H53.9101ZM53.8901 28.59C54.7501 28.59 55.4201 28.34 55.8801 27.83C56.3501 27.33 56.5801 26.59 56.5801 25.63C56.5801 24.67 56.3501 23.94 55.8801 23.43C55.4101 22.93 54.7501 22.67 53.8901 22.67H52.2301V28.58H53.8901V28.59Z" fill="white"/>
<path d="M65.0898 27.32H60.3398C60.3998 27.86 60.5698 28.27 60.8498 28.54C61.1298 28.81 61.5098 28.95 61.9898 28.95C62.6998 28.95 63.1798 28.65 63.4398 28.04H64.9298C64.7698 28.69 64.4198 29.2 63.8998 29.58C63.3798 29.96 62.7398 30.15 61.9798 30.15C61.0398 30.15 60.2698 29.85 59.6898 29.24C59.1098 28.63 58.8198 27.83 58.8198 26.83C58.8198 25.83 59.1098 25.03 59.6798 24.42C60.2598 23.81 61.0198 23.51 61.9598 23.51C62.8998 23.51 63.6798 23.83 64.2498 24.46C64.8198 25.09 65.0998 25.92 65.0998 26.95V27.32H65.0898ZM60.3498 26.24H63.5398C63.4698 25.77 63.2998 25.4 63.0198 25.13C62.7398 24.86 62.3798 24.72 61.9398 24.72C61.0298 24.72 60.4998 25.22 60.3498 26.23V26.24Z" fill="white"/>
<path d="M69.8302 23.67H71.4402L69.0802 30.02H67.3002L64.9502 23.67H66.6102L67.2302 25.38C67.5202 26.27 67.8502 27.35 68.2302 28.62C68.5302 27.6 68.8702 26.52 69.2302 25.37L69.8502 23.67H69.8302Z" fill="white"/>
<path d="M77.5303 27.32H72.7803C72.8403 27.86 73.0103 28.27 73.2903 28.54C73.5703 28.81 73.9503 28.95 74.4303 28.95C75.1403 28.95 75.6202 28.65 75.8802 28.04H77.3703C77.2103 28.69 76.8602 29.2 76.3402 29.58C75.8202 29.96 75.1802 30.15 74.4202 30.15C73.4802 30.15 72.7102 29.85 72.1302 29.24C71.5502 28.63 71.2603 27.83 71.2603 26.83C71.2603 25.83 71.5503 25.03 72.1203 24.42C72.7003 23.81 73.4603 23.51 74.4003 23.51C75.3403 23.51 76.1203 23.83 76.6903 24.46C77.2603 25.09 77.5403 25.92 77.5403 26.95V27.32H77.5303ZM72.7903 26.24H75.9803C75.9103 25.77 75.7403 25.4 75.4603 25.13C75.1803 24.86 74.8202 24.72 74.3802 24.72C73.4702 24.72 72.9403 25.22 72.7903 26.23V26.24Z" fill="white"/>
<path d="M78.2803 30.02V21.26H79.8303V30.02H78.2803Z" fill="white"/>
<path d="M83.7903 30.17C82.8203 30.17 82.0403 29.87 81.4503 29.26C80.8503 28.66 80.5503 27.86 80.5503 26.85C80.5503 25.84 80.8503 25.04 81.4503 24.44C82.0403 23.83 82.8203 23.53 83.7903 23.53C84.7603 23.53 85.5403 23.83 86.1303 24.43C86.7203 25.03 87.0203 25.84 87.0203 26.85C87.0203 27.86 86.7203 28.65 86.1303 29.26C85.5403 29.87 84.7603 30.17 83.7903 30.17ZM85.0003 28.36C85.2903 28 85.4403 27.5 85.4403 26.85C85.4403 26.2 85.2903 25.7 85.0003 25.34C84.7103 24.98 84.3003 24.8 83.7903 24.8C83.2803 24.8 82.8703 24.98 82.5803 25.33C82.2903 25.68 82.1403 26.19 82.1403 26.84C82.1403 27.49 82.2903 28 82.5803 28.35C82.8703 28.7 83.2803 28.88 83.7903 28.88C84.3003 28.88 84.7103 28.7 85.0003 28.34V28.36Z" fill="white"/>
<path d="M93.3402 24.42C93.8502 25.03 94.1002 25.83 94.1002 26.84C94.1002 27.85 93.8502 28.64 93.3402 29.25C92.8202 29.86 92.1302 30.16 91.2602 30.16C90.3902 30.16 89.7402 29.84 89.2902 29.19V32.43H87.7402V23.67H89.2302V24.58C89.6902 23.87 90.3702 23.52 91.2602 23.52C92.1502 23.52 92.8202 23.82 93.3402 24.42ZM90.8902 28.89C91.4002 28.89 91.8002 28.71 92.1002 28.34C92.3902 27.98 92.5302 27.47 92.5302 26.8C92.5302 26.13 92.3902 25.66 92.1102 25.32C91.8302 24.98 91.4202 24.81 90.9002 24.81C90.3802 24.81 89.9802 24.99 89.6902 25.34C89.4002 25.69 89.2602 26.2 89.2602 26.85C89.2602 27.5 89.4102 28.02 89.7002 28.36C89.9802 28.71 90.3802 28.89 90.8902 28.89Z" fill="white"/>
<path d="M103.7 24.14C104.09 24.55 104.28 25.11 104.28 25.83V30.03H102.73V26.08C102.73 25.28 102.36 24.87 101.63 24.87C101.24 24.87 100.92 25.01 100.68 25.29C100.44 25.57 100.32 25.99 100.32 26.53V30.02H98.7798V26.07C98.7798 25.27 98.4098 24.86 97.6698 24.86C97.2798 24.86 96.9698 25 96.7298 25.28C96.4898 25.56 96.3698 25.98 96.3698 26.52V30.01H94.8198V23.66H96.3198V24.57C96.7498 23.86 97.3598 23.51 98.1298 23.51C99.0998 23.51 99.7498 23.9 100.1 24.69C100.58 23.9 101.23 23.51 102.07 23.51C102.77 23.51 103.31 23.71 103.7 24.13V24.14Z" fill="white"/>
<path d="M111.29 27.32H106.54C106.6 27.86 106.77 28.27 107.05 28.54C107.33 28.81 107.71 28.95 108.19 28.95C108.9 28.95 109.38 28.65 109.64 28.04H111.13C110.97 28.69 110.62 29.2 110.1 29.58C109.58 29.96 108.94 30.15 108.18 30.15C107.24 30.15 106.47 29.85 105.89 29.24C105.31 28.63 105.02 27.83 105.02 26.83C105.02 25.83 105.31 25.03 105.88 24.42C106.46 23.81 107.22 23.51 108.16 23.51C109.1 23.51 109.88 23.83 110.45 24.46C111.02 25.09 111.3 25.92 111.3 26.95V27.32H111.29ZM106.55 26.24H109.74C109.67 25.77 109.5 25.4 109.22 25.13C108.94 24.86 108.58 24.72 108.14 24.72C107.23 24.72 106.7 25.22 106.55 26.23V26.24Z" fill="white"/>
<path d="M117.15 24.12C117.55 24.52 117.75 25.08 117.75 25.81V30.02H116.2V26.07C116.2 25.27 115.8 24.86 115.01 24.86C114.62 24.86 114.28 25 114.01 25.28C113.74 25.56 113.6 25.95 113.6 26.45V30.01H112.05V23.66H113.55V24.57C114.03 23.86 114.69 23.51 115.53 23.51C116.22 23.51 116.76 23.71 117.16 24.11L117.15 24.12Z" fill="white"/>
<path d="M121.85 24.85H120.6V28.28C120.6 28.49 120.66 28.63 120.77 28.71C120.88 28.79 121.07 28.83 121.33 28.83H121.86V30.01C121.52 30.04 121.25 30.06 121.05 30.06C120.36 30.06 119.86 29.93 119.54 29.67C119.22 29.41 119.07 29 119.07 28.43V24.84H118.09V23.66H119.07V21.81H120.61V23.66H121.86V24.84L121.85 24.85Z" fill="white"/>
<path d="M56.7501 33.11H52.2201V35.18H56.3401V36.61H52.2201V40.39H50.5601V31.63H56.7501V33.12V33.11Z" fill="white"/>
<path d="M60.1199 40.53C59.1499 40.53 58.3699 40.23 57.7799 39.62C57.1799 39.02 56.8799 38.22 56.8799 37.21C56.8799 36.2 57.1799 35.4 57.7799 34.8C58.3699 34.19 59.1499 33.89 60.1199 33.89C61.0899 33.89 61.8699 34.19 62.4599 34.79C63.0499 35.39 63.3499 36.2 63.3499 37.21C63.3499 38.22 63.0499 39.01 62.4599 39.62C61.8699 40.23 61.0899 40.53 60.1199 40.53ZM61.3299 38.72C61.6199 38.36 61.7699 37.86 61.7699 37.21C61.7699 36.56 61.6199 36.06 61.3299 35.7C61.0399 35.34 60.6299 35.16 60.1199 35.16C59.6099 35.16 59.1999 35.34 58.9099 35.69C58.6199 36.04 58.4699 36.55 58.4699 37.2C58.4699 37.85 58.6199 38.36 58.9099 38.71C59.1999 39.06 59.6099 39.24 60.1199 39.24C60.6299 39.24 61.0399 39.06 61.3299 38.7V38.72Z" fill="white"/>
<path d="M68.0702 34.03H69.6202V40.38H68.1202V39.46C67.6402 40.17 66.9701 40.53 66.1301 40.53C65.4501 40.53 64.9102 40.33 64.5102 39.93C64.1102 39.53 63.9102 38.97 63.9102 38.24V34.03H65.4602V37.98C65.4602 38.78 65.8602 39.19 66.6502 39.19C67.0402 39.19 67.3802 39.05 67.6502 38.77C67.9202 38.49 68.0602 38.1 68.0602 37.6V34.04L68.0702 34.03Z" fill="white"/>
<path d="M75.7401 34.48C76.1401 34.88 76.3401 35.44 76.3401 36.17V40.38H74.7901V36.43C74.7901 35.63 74.3901 35.22 73.6001 35.22C73.2101 35.22 72.8701 35.36 72.6001 35.64C72.3301 35.92 72.1901 36.31 72.1901 36.81V40.37H70.6401V34.02H72.1401V34.93C72.6201 34.22 73.2801 33.87 74.1201 33.87C74.8101 33.87 75.3501 34.07 75.7501 34.47L75.7401 34.48Z" fill="white"/>
<path d="M81.8703 31.62H83.4203V40.38H81.9203V39.49C81.4503 40.18 80.7803 40.52 79.9103 40.52C79.0403 40.52 78.3403 40.22 77.8303 39.61C77.3103 39 77.0503 38.2 77.0503 37.2C77.0503 36.2 77.3103 35.37 77.8303 34.78C78.3303 34.18 79.0203 33.88 79.9103 33.88C80.8003 33.88 81.4203 34.2 81.8703 34.85V31.61V31.62ZM80.2703 39.25C80.7803 39.25 81.1803 39.07 81.4803 38.72C81.7703 38.37 81.9103 37.86 81.9103 37.21C81.9103 36.56 81.7703 36.05 81.4803 35.7C81.1903 35.35 80.7903 35.17 80.2703 35.17C79.7503 35.17 79.3703 35.35 79.0803 35.72C78.7903 36.09 78.6403 36.6 78.6403 37.26C78.6403 37.92 78.7803 38.41 79.0703 38.75C79.3603 39.09 79.7503 39.25 80.2603 39.25H80.2703Z" fill="white"/>
<path d="M88.5898 40.38C88.5198 40.25 88.4598 39.99 88.4198 39.6C87.9898 40.22 87.3098 40.52 86.3798 40.52C85.6798 40.52 85.1298 40.35 84.7098 40.02C84.2898 39.69 84.0898 39.22 84.0898 38.62C84.0898 37.46 84.8998 36.8 86.5298 36.64L87.4898 36.55C87.8098 36.51 88.0398 36.43 88.1798 36.32C88.3198 36.21 88.3898 36.04 88.3898 35.82C88.3898 35.55 88.2998 35.35 88.1298 35.22C87.9498 35.09 87.6598 35.03 87.2398 35.03C86.7898 35.03 86.4598 35.11 86.2698 35.26C86.0698 35.41 85.9598 35.67 85.9298 36.04H84.3998C84.4898 34.6 85.4398 33.87 87.2498 33.87C89.0598 33.87 89.8998 34.51 89.8998 35.78V39.16C89.8998 39.72 89.9899 40.12 90.1599 40.37H88.6098L88.5898 40.38ZM87.9298 39.02C88.2298 38.75 88.3898 38.37 88.3898 37.87V37.29C88.2398 37.42 87.9999 37.51 87.6599 37.55L86.8198 37.65C86.4098 37.7 86.1198 37.8 85.9398 37.94C85.7598 38.08 85.6798 38.29 85.6798 38.56C85.6798 38.83 85.7698 39.04 85.9598 39.19C86.1398 39.34 86.4098 39.42 86.7498 39.42C87.2298 39.42 87.6298 39.29 87.9298 39.02Z" fill="white"/>
<path d="M93.9299 35.21H92.6799V38.64C92.6799 38.85 92.7399 38.99 92.8499 39.07C92.9599 39.15 93.1499 39.19 93.4099 39.19H93.9399V40.37C93.5999 40.4 93.3299 40.42 93.1299 40.42C92.4399 40.42 91.9399 40.29 91.6199 40.03C91.2999 39.77 91.1499 39.36 91.1499 38.79V35.2H90.1699V34.02H91.1499V32.17H92.6899V34.02H93.9399V35.2L93.9299 35.21Z" fill="white"/>
<path d="M94.5898 40.38V34.03H96.1398V40.38H94.5898ZM94.5998 33.21V31.76H96.1298V33.21H94.5998Z" fill="white"/>
<path d="M100.11 40.53C99.1401 40.53 98.3601 40.23 97.7701 39.62C97.1701 39.02 96.8701 38.22 96.8701 37.21C96.8701 36.2 97.1701 35.4 97.7701 34.8C98.3601 34.19 99.1401 33.89 100.11 33.89C101.08 33.89 101.86 34.19 102.45 34.79C103.04 35.39 103.34 36.2 103.34 37.21C103.34 38.22 103.04 39.01 102.45 39.62C101.86 40.23 101.08 40.53 100.11 40.53ZM101.32 38.72C101.61 38.36 101.76 37.86 101.76 37.21C101.76 36.56 101.61 36.06 101.32 35.7C101.03 35.34 100.62 35.16 100.11 35.16C99.6001 35.16 99.1901 35.34 98.9001 35.69C98.6101 36.04 98.4601 36.55 98.4601 37.2C98.4601 37.85 98.6101 38.36 98.9001 38.71C99.1901 39.06 99.6001 39.24 100.11 39.24C100.62 39.24 101.03 39.06 101.32 38.7V38.72Z" fill="white"/>
<path d="M109.17 34.48C109.57 34.88 109.77 35.44 109.77 36.17V40.38H108.22V36.43C108.22 35.63 107.82 35.22 107.03 35.22C106.64 35.22 106.3 35.36 106.03 35.64C105.76 35.92 105.62 36.31 105.62 36.81V40.37H104.07V34.02H105.57V34.93C106.05 34.22 106.71 33.87 107.55 33.87C108.24 33.87 108.78 34.07 109.18 34.47L109.17 34.48Z" fill="white"/>
<path d="M113.52 19.41H111.6L110.97 18.69C110.23 19.3 109.37 19.6 108.38 19.6C107.46 19.6 106.74 19.36 106.22 18.88C105.69 18.41 105.42 17.81 105.42 17.07C105.42 16.52 105.57 16.05 105.88 15.65C106.18 15.25 106.66 14.89 107.31 14.57C106.97 14.18 106.73 13.84 106.59 13.55C106.45 13.26 106.38 12.95 106.38 12.64C106.38 12.05 106.6 11.55 107.04 11.16C107.47 10.76 108.06 10.56 108.81 10.56C109.52 10.56 110.1 10.74 110.55 11.11C111 11.47 111.23 11.96 111.23 12.57C111.23 13.49 110.63 14.25 109.44 14.87L110.95 16.55C111.13 16.11 111.23 15.65 111.24 15.16H112.65C112.62 16.05 112.37 16.87 111.92 17.61L113.54 19.41H113.52ZM110.11 17.72L108.08 15.46C107.38 15.85 107.02 16.35 107.02 16.95C107.02 17.32 107.16 17.64 107.43 17.9C107.71 18.16 108.07 18.29 108.51 18.29C109.1 18.29 109.63 18.1 110.1 17.72H110.11ZM108.18 12.03C108 12.19 107.91 12.39 107.91 12.64C107.91 13 108.16 13.45 108.65 13.99L108.67 14.01C109.42 13.6 109.79 13.14 109.79 12.64C109.79 12.4 109.7 12.19 109.52 12.03C109.34 11.87 109.11 11.79 108.84 11.79C108.57 11.79 108.35 11.87 108.17 12.03H108.18Z" fill="white"/>
</g>
<defs>
<clipPath id="clip0_191_2">
<rect width="122" height="51" fill="white"/>
</clipPath>
</defs>
</svg>
